<svg width="260" height="107" viewBox="0 0 260 107" fill="none" xmlns="http://www.w3.org/2000/svg">
<rect x="0.5" y="48.4385" width="259" height="58.0013" rx="6.5" stroke="#295288"/>
<path d="M15.5078 11.6016H12.0859C12.0234 11.1589 11.8958 10.7656 11.7031 10.4219C11.5104 10.0729 11.263 9.77604 10.9609 9.53125C10.6589 9.28646 10.3099 9.09896 9.91406 8.96875C9.52344 8.83854 9.09896 8.77344 8.64063 8.77344C7.8125 8.77344 7.09115 8.97917 6.47656 9.39062C5.86198 9.79687 5.38542 10.3906 5.04688 11.1719C4.70833 11.9479 4.53906 12.8906 4.53906 14C4.53906 15.1406 4.70833 16.099 5.04688 16.875C5.39063 17.651 5.86979 18.237 6.48437 18.6328C7.09896 19.0286 7.8099 19.2266 8.61719 19.2266C9.07031 19.2266 9.48958 19.1667 9.875 19.0469C10.2656 18.9271 10.612 18.7526 10.9141 18.5234C11.2161 18.2891 11.4661 18.0052 11.6641 17.6719C11.8672 17.3385 12.0078 16.9583 12.0859 16.5312L15.5078 16.5469C15.4193 17.2812 15.1979 17.9896 14.8438 18.6719C14.4948 19.349 14.0234 19.9557 13.4297 20.4922C12.8411 21.0234 12.138 21.4453 11.3203 21.7578C10.5078 22.0651 9.58854 22.2187 8.5625 22.2187C7.13542 22.2187 5.85938 21.8958 4.73438 21.25C3.61458 20.6042 2.72917 19.6693 2.07812 18.4453C1.43229 17.2214 1.10938 15.7396 1.10938 14C1.10938 12.2552 1.4375 10.7708 2.09375 9.54688C2.75 8.32292 3.64063 7.39062 4.76563 6.75C5.89063 6.10417 7.15625 5.78125 8.5625 5.78125C9.48958 5.78125 10.349 5.91146 11.1406 6.17187C11.9375 6.43229 12.6432 6.8125 13.2578 7.3125C13.8724 7.80729 14.3724 8.41406 14.7578 9.13281C15.1484 9.85156 15.3984 10.6745 15.5078 11.6016ZM17.4311 22V10H20.7592V22H17.4311ZM19.103 8.45312C18.6082 8.45312 18.1837 8.28906 17.8295 7.96094C17.4806 7.6276 17.3061 7.22917 17.3061 6.76562C17.3061 6.30729 17.4806 5.91406 17.8295 5.58594C18.1837 5.2526 18.6082 5.08594 19.103 5.08594C19.5978 5.08594 20.0196 5.2526 20.3686 5.58594C20.7228 5.91406 20.8998 6.30729 20.8998 6.76562C20.8998 7.22917 20.7228 7.6276 20.3686 7.96094C20.0196 8.28906 19.5978 8.45312 19.103 8.45312ZM29.368 10V12.5H22.1415V10H29.368ZM23.7821 7.125H27.1102V18.3125C27.1102 18.6198 27.1571 18.8594 27.2509 19.0312C27.3446 19.1979 27.4748 19.3151 27.6415 19.3828C27.8134 19.4505 28.0113 19.4844 28.2352 19.4844C28.3915 19.4844 28.5477 19.4714 28.704 19.4453C28.8602 19.4141 28.98 19.3906 29.0634 19.375L29.5868 21.8516C29.4201 21.9036 29.1858 21.9635 28.8837 22.0313C28.5816 22.1042 28.2144 22.1484 27.7821 22.1641C26.98 22.1953 26.2769 22.0885 25.6727 21.8437C25.0738 21.599 24.6076 21.2187 24.2743 20.7031C23.941 20.1875 23.7769 19.5365 23.7821 18.75V7.125ZM33.1507 26.5C32.7288 26.5 32.333 26.4661 31.9632 26.3984C31.5986 26.3359 31.2965 26.2552 31.057 26.1562L31.807 23.6719C32.1976 23.7917 32.5491 23.8568 32.8616 23.8672C33.1793 23.8776 33.4528 23.8047 33.682 23.6484C33.9163 23.4922 34.1064 23.2266 34.2523 22.8516L34.4476 22.3438L30.1429 10H33.6429L36.1273 18.8125H36.2523L38.7601 10H42.2835L37.6195 23.2969C37.3955 23.9427 37.0908 24.5052 36.7054 24.9844C36.3252 25.4688 35.8434 25.8411 35.2601 26.1016C34.6767 26.3672 33.9736 26.5 33.1507 26.5Z" fill="black"/>
<path d="M46.5185 66.1818V88H42.5661V66.1818H46.5185ZM54.4846 78.4119V88H50.628V71.6364H54.3141V74.4169H54.5059C54.8823 73.5007 55.4824 72.7727 56.3063 72.233C57.1373 71.6932 58.1635 71.4233 59.3851 71.4233C60.5144 71.4233 61.498 71.6648 62.3361 72.1477C63.1813 72.6307 63.8347 73.3303 64.2963 74.2464C64.7651 75.1626 64.9959 76.2741 64.9888 77.581V88H61.1323V78.1776C61.1323 77.0838 60.8482 76.228 60.28 75.6101C59.7189 74.9922 58.9412 74.6832 57.9469 74.6832C57.2722 74.6832 56.6721 74.8324 56.1465 75.1307C55.628 75.4219 55.2196 75.8445 54.9213 76.3984C54.6301 76.9524 54.4846 77.6236 54.4846 78.4119ZM81.8425 75.9616L78.3269 76.3452C78.2275 75.9901 78.0534 75.6562 77.8049 75.3438C77.5634 75.0312 77.2367 74.7791 76.8248 74.5874C76.4128 74.3956 75.9086 74.2997 75.312 74.2997C74.5094 74.2997 73.8347 74.4737 73.2878 74.8217C72.748 75.1697 72.4817 75.6207 72.4888 76.1747C72.4817 76.6506 72.6557 77.0376 73.0108 77.3359C73.373 77.6342 73.9696 77.8793 74.8006 78.071L77.5918 78.6676C79.1401 79.0014 80.2907 79.5305 81.0435 80.255C81.8034 80.9794 82.187 81.9276 82.1941 83.0994C82.187 84.1293 81.8851 85.0384 81.2885 85.8267C80.699 86.608 79.8787 87.2187 78.8276 87.6591C77.7765 88.0994 76.5691 88.3196 75.2054 88.3196C73.2026 88.3196 71.5904 87.9006 70.3688 87.0625C69.1472 86.2173 68.4192 85.0419 68.1848 83.5362L71.9455 83.174C72.1159 83.9126 72.4782 84.4702 73.0321 84.8466C73.5861 85.223 74.307 85.4112 75.1948 85.4112C76.111 85.4112 76.8461 85.223 77.4 84.8466C77.9611 84.4702 78.2417 84.005 78.2417 83.451C78.2417 82.9822 78.0605 82.5952 77.6983 82.2898C77.3432 81.9844 76.7892 81.75 76.0364 81.5866L73.2452 81.0007C71.6756 80.674 70.5144 80.1236 69.7615 79.3494C69.0087 78.5682 68.6358 77.581 68.6429 76.3878C68.6358 75.3793 68.9093 74.5057 69.4632 73.767C70.0243 73.0213 70.802 72.446 71.7963 72.0412C72.7978 71.6293 73.9519 71.4233 75.2587 71.4233C77.1763 71.4233 78.6855 71.8317 79.7864 72.6484C80.8944 73.4652 81.5797 74.5696 81.8425 75.9616ZM92.6184 88.3196C90.9778 88.3196 89.5609 87.9787 88.3677 87.2969C87.1816 86.608 86.269 85.6349 85.6298 84.3778C84.9906 83.1136 84.671 81.6257 84.671 79.9141C84.671 78.2308 84.9906 76.7536 85.6298 75.4822C86.2761 74.2038 87.1781 73.2095 88.3358 72.4993C89.4934 71.782 90.8535 71.4233 92.416 71.4233C93.4245 71.4233 94.3762 71.5866 95.2711 71.9134C96.1731 72.233 96.9686 72.7301 97.6575 73.4048C98.3535 74.0795 98.9004 74.9389 99.2981 75.983C99.6958 77.0199 99.8947 78.2557 99.8947 79.6903V80.8729H86.4821V78.2734H96.198C96.1909 77.5348 96.0311 76.8778 95.7186 76.3026C95.4061 75.7202 94.9693 75.2621 94.4082 74.9283C93.8542 74.5945 93.2079 74.4276 92.4693 74.4276C91.6809 74.4276 90.9885 74.6193 90.3919 75.0028C89.7953 75.3793 89.3301 75.8764 88.9963 76.4943C88.6696 77.1051 88.5027 77.7763 88.4956 78.5078V80.777C88.4956 81.7287 88.6696 82.5455 89.0176 83.2273C89.3656 83.902 89.8521 84.4205 90.4771 84.7827C91.1021 85.1378 91.8336 85.3153 92.6717 85.3153C93.2328 85.3153 93.7406 85.2372 94.1951 85.081C94.6497 84.9176 95.0439 84.6797 95.3777 84.3672C95.7115 84.0547 95.9636 83.6676 96.1341 83.206L99.7349 83.6108C99.5076 84.5625 99.0744 85.3935 98.4352 86.1037C97.8031 86.8068 96.9934 87.3537 96.0062 87.7443C95.019 88.1278 93.8897 88.3196 92.6184 88.3196ZM103.157 88V71.6364H106.897V74.3636H107.067C107.365 73.419 107.877 72.6911 108.601 72.1797C109.333 71.6612 110.167 71.402 111.105 71.402C111.318 71.402 111.556 71.4126 111.819 71.4339C112.088 71.4482 112.312 71.473 112.49 71.5085V75.0561C112.326 74.9993 112.067 74.9496 111.712 74.907C111.364 74.8572 111.027 74.8324 110.7 74.8324C109.997 74.8324 109.365 74.9851 108.804 75.2905C108.25 75.5888 107.813 76.0043 107.493 76.5369C107.174 77.0696 107.014 77.6839 107.014 78.38V88H103.157ZM124.102 71.6364V74.6193H114.695V71.6364H124.102ZM117.017 67.7159H120.874V83.0781C120.874 83.5966 120.952 83.9943 121.108 84.2713C121.272 84.5412 121.485 84.7259 121.748 84.8253C122.01 84.9247 122.301 84.9744 122.621 84.9744C122.863 84.9744 123.083 84.9567 123.282 84.9212C123.488 84.8857 123.644 84.8537 123.75 84.8253L124.4 87.8402C124.194 87.9112 123.9 87.9893 123.516 88.0746C123.14 88.1598 122.678 88.2095 122.131 88.2237C121.165 88.2521 120.295 88.1065 119.521 87.7869C118.747 87.4602 118.132 86.956 117.678 86.2741C117.23 85.5923 117.01 84.7401 117.017 83.7173V67.7159ZM153.615 73.5433H149.63C149.517 72.8899 149.307 72.3111 149.002 71.8068C148.696 71.2955 148.316 70.8622 147.862 70.5071C147.407 70.152 146.889 69.8857 146.306 69.7081C145.731 69.5234 145.11 69.4311 144.442 69.4311C143.256 69.4311 142.205 69.7294 141.289 70.326C140.372 70.9155 139.655 71.782 139.137 72.9254C138.618 74.0618 138.359 75.4503 138.359 77.0909C138.359 78.7599 138.618 80.1662 139.137 81.3097C139.662 82.446 140.379 83.3054 141.289 83.8878C142.205 84.4631 143.252 84.7507 144.431 84.7507C145.085 84.7507 145.695 84.6655 146.264 84.495C146.839 84.3175 147.354 84.0582 147.808 83.7173C148.27 83.3764 148.657 82.9574 148.97 82.4602C149.289 81.9631 149.509 81.3949 149.63 80.7557L153.615 80.777C153.465 81.8139 153.142 82.7869 152.645 83.696C152.155 84.6051 151.512 85.4077 150.717 86.1037C149.921 86.7926 148.991 87.3324 147.926 87.723C146.86 88.1065 145.678 88.2983 144.378 88.2983C142.46 88.2983 140.749 87.8544 139.243 86.9666C137.737 86.0788 136.551 84.7969 135.685 83.1207C134.818 81.4446 134.385 79.4347 134.385 77.0909C134.385 74.7401 134.822 72.7301 135.695 71.0611C136.569 69.3849 137.759 68.103 139.264 67.2152C140.77 66.3274 142.475 65.8835 144.378 65.8835C145.593 65.8835 146.722 66.054 147.766 66.3949C148.81 66.7358 149.74 67.2365 150.557 67.897C151.374 68.5504 152.045 69.353 152.57 70.3047C153.103 71.2493 153.451 72.3288 153.615 73.5433ZM157.064 88V71.6364H160.92V88H157.064ZM159.002 69.3139C158.392 69.3139 157.866 69.1115 157.426 68.7067C156.985 68.2947 156.765 67.8011 156.765 67.2259C156.765 66.6435 156.985 66.1499 157.426 65.745C157.866 65.3331 158.392 65.1271 159.002 65.1271C159.62 65.1271 160.146 65.3331 160.579 65.745C161.02 66.1499 161.24 66.6435 161.24 67.2259C161.24 67.8011 161.02 68.2947 160.579 68.7067C160.146 69.1115 159.62 69.3139 159.002 69.3139ZM173.057 71.6364V74.6193H163.65V71.6364H173.057ZM165.972 67.7159H169.829V83.0781C169.829 83.5966 169.907 83.9943 170.063 84.2713C170.227 84.5412 170.44 84.7259 170.703 84.8253C170.965 84.9247 171.257 84.9744 171.576 84.9744C171.818 84.9744 172.038 84.9567 172.237 84.9212C172.443 84.8857 172.599 84.8537 172.705 84.8253L173.355 87.8402C173.149 87.9112 172.855 87.9893 172.471 88.0746C172.095 88.1598 171.633 88.2095 171.086 88.2237C170.12 88.2521 169.25 88.1065 168.476 87.7869C167.702 87.4602 167.088 86.956 166.633 86.2741C166.186 85.5923 165.965 84.7401 165.972 83.7173V67.7159ZM178.679 94.1364C178.154 94.1364 177.667 94.0938 177.22 94.0085C176.779 93.9304 176.428 93.8381 176.165 93.7315L177.06 90.7273C177.621 90.8906 178.122 90.9688 178.562 90.9616C179.002 90.9545 179.39 90.8161 179.723 90.5462C180.064 90.2834 180.352 89.843 180.586 89.2251L180.917 88.3409L174.983 71.6364H179.074L182.845 83.9943H183.015L186.797 71.6364H190.899L184.347 89.9815C184.042 90.848 183.637 91.5902 183.132 92.2081C182.628 92.8331 182.01 93.3089 181.279 93.6357C180.554 93.9695 179.688 94.1364 178.679 94.1364Z" fill="black"/>
</svg>
