<svg width="188" height="107" viewBox="0 0 188 107" fill="none" xmlns="http://www.w3.org/2000/svg">
<rect x="0.5" y="48.4385" width="187" height="58.0013" rx="6.5" stroke="#295288"/>
<path d="M1.21875 22V19.9922L9.20313 8.78906H1.20312V6H13.4531V8.00781L5.46094 19.2109H13.4688V22H1.21875ZM15.562 22V10H18.8901V22H15.562ZM17.2338 8.45312C16.739 8.45312 16.3146 8.28906 15.9604 7.96094C15.6114 7.6276 15.437 7.22917 15.437 6.76562C15.437 6.30729 15.6114 5.91406 15.9604 5.58594C16.3146 5.2526 16.739 5.08594 17.2338 5.08594C17.7286 5.08594 18.1505 5.2526 18.4995 5.58594C18.8536 5.91406 19.0307 6.30729 19.0307 6.76562C19.0307 7.22917 18.8536 7.6276 18.4995 7.96094C18.1505 8.28906 17.7286 8.45312 17.2338 8.45312ZM21.1161 26.5V10H24.3973V12.0156H24.5458C24.6916 11.6927 24.9026 11.3646 25.1786 11.0312C25.4598 10.6927 25.8244 10.4115 26.2723 10.1875C26.7255 9.95833 27.288 9.84375 27.9598 9.84375C28.8348 9.84375 29.6421 10.0729 30.3817 10.5313C31.1213 10.9844 31.7124 11.6693 32.1552 12.5859C32.5979 13.4974 32.8192 14.6406 32.8192 16.0156C32.8192 17.3542 32.6031 18.4844 32.1708 19.4062C31.7437 20.3229 31.1604 21.0182 30.4208 21.4922C29.6864 21.9609 28.8635 22.1953 27.952 22.1953C27.3062 22.1953 26.7567 22.0885 26.3036 21.875C25.8557 21.6615 25.4885 21.3932 25.202 21.0703C24.9156 20.7422 24.6968 20.4115 24.5458 20.0781H24.4442V26.5H21.1161ZM24.3739 16C24.3739 16.7135 24.4729 17.3359 24.6708 17.8672C24.8687 18.3984 25.1552 18.8125 25.5302 19.1094C25.9052 19.401 26.3609 19.5469 26.8973 19.5469C27.439 19.5469 27.8973 19.3984 28.2723 19.1016C28.6473 18.7995 28.9312 18.3828 29.1239 17.8516C29.3218 17.3151 29.4208 16.6979 29.4208 16C29.4208 15.3073 29.3244 14.6979 29.1317 14.1719C28.939 13.6458 28.6552 13.2344 28.2802 12.9375C27.9052 12.6406 27.4442 12.4922 26.8973 12.4922C26.3557 12.4922 25.8973 12.6354 25.5223 12.9219C25.1526 13.2083 24.8687 13.6146 24.6708 14.1406C24.4729 14.6667 24.3739 15.2865 24.3739 16ZM53.4295 11.6016H50.0076C49.9451 11.1589 49.8175 10.7656 49.6248 10.4219C49.4321 10.0729 49.1847 9.77604 48.8826 9.53125C48.5805 9.28646 48.2315 9.09896 47.8357 8.96875C47.4451 8.83854 47.0206 8.77344 46.5623 8.77344C45.7341 8.77344 45.0128 8.97917 44.3982 9.39062C43.7836 9.79687 43.3071 10.3906 42.9685 11.1719C42.63 11.9479 42.4607 12.8906 42.4607 14C42.4607 15.1406 42.63 16.099 42.9685 16.875C43.3123 17.651 43.7914 18.237 44.406 18.6328C45.0206 19.0286 45.7315 19.2266 46.5388 19.2266C46.992 19.2266 47.4112 19.1667 47.7966 19.0469C48.1873 18.9271 48.5336 18.7526 48.8357 18.5234C49.1378 18.2891 49.3878 18.0052 49.5857 17.6719C49.7888 17.3385 49.9295 16.9583 50.0076 16.5312L53.4295 16.5469C53.3409 17.2812 53.1196 17.9896 52.7654 18.6719C52.4164 19.349 51.9451 19.9557 51.3513 20.4922C50.7628 21.0234 50.0597 21.4453 49.242 21.7578C48.4295 22.0651 47.5102 22.2187 46.4841 22.2187C45.0571 22.2187 43.781 21.8958 42.656 21.25C41.5362 20.6042 40.6508 19.6693 39.9998 18.4453C39.3539 17.2214 39.031 15.7396 39.031 14C39.031 12.2552 39.3591 10.7708 40.0154 9.54688C40.6716 8.32292 41.5623 7.39062 42.6873 6.75C43.8123 6.10417 45.0779 5.78125 46.4841 5.78125C47.4112 5.78125 48.2706 5.91146 49.0623 6.17187C49.8591 6.43229 50.5649 6.8125 51.1795 7.3125C51.794 7.80729 52.294 8.41406 52.6795 9.13281C53.0701 9.85156 53.3201 10.6745 53.4295 11.6016ZM60.7746 22.2344C59.5611 22.2344 58.5116 21.9766 57.6262 21.4609C56.746 20.9401 56.0663 20.2161 55.5871 19.2891C55.1079 18.3568 54.8684 17.276 54.8684 16.0469C54.8684 14.8073 55.1079 13.724 55.5871 12.7969C56.0663 11.8646 56.746 11.1406 57.6262 10.625C58.5116 10.1042 59.5611 9.84375 60.7746 9.84375C61.9882 9.84375 63.035 10.1042 63.9152 10.625C64.8007 11.1406 65.4829 11.8646 65.9621 12.7969C66.4413 13.724 66.6809 14.8073 66.6809 16.0469C66.6809 17.276 66.4413 18.3568 65.9621 19.2891C65.4829 20.2161 64.8007 20.9401 63.9152 21.4609C63.035 21.9766 61.9882 22.2344 60.7746 22.2344ZM60.7902 19.6562C61.3423 19.6562 61.8033 19.5 62.173 19.1875C62.5428 18.8698 62.8215 18.4375 63.009 17.8906C63.2017 17.3437 63.298 16.7214 63.298 16.0234C63.298 15.3255 63.2017 14.7031 63.009 14.1562C62.8215 13.6094 62.5428 13.1771 62.173 12.8594C61.8033 12.5417 61.3423 12.3828 60.7902 12.3828C60.2329 12.3828 59.7642 12.5417 59.384 12.8594C59.009 13.1771 58.7251 13.6094 58.5324 14.1562C58.3449 14.7031 58.2512 15.3255 58.2512 16.0234C58.2512 16.7214 58.3449 17.3437 58.5324 17.8906C58.7251 18.4375 59.009 18.8698 59.384 19.1875C59.7642 19.5 60.2329 19.6562 60.7902 19.6562ZM72.8268 22.1953C71.9153 22.1953 71.0898 21.9609 70.3502 21.4922C69.6159 21.0182 69.0325 20.3229 68.6002 19.4062C68.1732 18.4844 67.9596 17.3542 67.9596 16.0156C67.9596 14.6406 68.181 13.4974 68.6237 12.5859C69.0664 11.6693 69.6549 10.9844 70.3893 10.5313C71.1289 10.0729 71.9388 9.84375 72.819 9.84375C73.4909 9.84375 74.0508 9.95833 74.4987 10.1875C74.9518 10.4115 75.3164 10.6927 75.5924 11.0312C75.8737 11.3646 76.0872 11.6927 76.233 12.0156H76.3346V6H79.6549V22H76.3737V20.0781H76.233C76.0768 20.4115 75.8554 20.7422 75.569 21.0703C75.2877 21.3932 74.9205 21.6615 74.4674 21.875C74.0195 22.0885 73.4726 22.1953 72.8268 22.1953ZM73.8815 19.5469C74.4179 19.5469 74.8711 19.401 75.2409 19.1094C75.6159 18.8125 75.9023 18.3984 76.1002 17.8672C76.3034 17.3359 76.4049 16.7135 76.4049 16C76.4049 15.2865 76.306 14.6667 76.108 14.1406C75.9101 13.6146 75.6237 13.2083 75.2487 12.9219C74.8737 12.6354 74.4179 12.4922 73.8815 12.4922C73.3346 12.4922 72.8737 12.6406 72.4987 12.9375C72.1237 13.2344 71.8398 13.6458 71.6471 14.1719C71.4544 14.6979 71.358 15.3073 71.358 16C71.358 16.6979 71.4544 17.3151 71.6471 17.8516C71.845 18.3828 72.1289 18.7995 72.4987 19.1016C72.8737 19.3984 73.3346 19.5469 73.8815 19.5469ZM87.42 22.2344C86.1856 22.2344 85.1231 21.9844 84.2325 21.4844C83.3471 20.9792 82.6648 20.2656 82.1856 19.3437C81.7065 18.4167 81.4669 17.3203 81.4669 16.0547C81.4669 14.8203 81.7065 13.737 82.1856 12.8047C82.6648 11.8724 83.3393 11.1458 84.2091 10.625C85.0841 10.1042 86.1101 9.84375 87.2872 9.84375C88.0789 9.84375 88.8158 9.97135 89.4981 10.2266C90.1856 10.4766 90.7846 10.8542 91.295 11.3594C91.8106 11.8646 92.2117 12.5 92.4981 13.2656C92.7846 14.026 92.9278 14.9167 92.9278 15.9375V16.8516H82.795V14.7891H89.795C89.795 14.3099 89.6908 13.8854 89.4825 13.5156C89.2742 13.1458 88.9851 12.8568 88.6153 12.6484C88.2507 12.4349 87.8262 12.3281 87.3419 12.3281C86.8367 12.3281 86.3887 12.4453 85.9981 12.6797C85.6127 12.9089 85.3106 13.2187 85.0919 13.6094C84.8731 13.9948 84.7611 14.4245 84.7559 14.8984V16.8594C84.7559 17.4531 84.8653 17.9661 85.0841 18.3984C85.308 18.8307 85.6231 19.1641 86.0294 19.3984C86.4356 19.6328 86.9174 19.75 87.4747 19.75C87.8445 19.75 88.183 19.6979 88.4903 19.5938C88.7976 19.4896 89.0606 19.3333 89.2794 19.125C89.4981 18.9167 89.6648 18.6615 89.7794 18.3594L92.8575 18.5625C92.7012 19.3021 92.3809 19.9479 91.8966 20.5C91.4174 21.0469 90.7976 21.474 90.0372 21.7813C89.282 22.0833 88.4096 22.2344 87.42 22.2344Z" fill="black"/>
<path d="M35.3466 66.1818V88H31.3942V66.1818H35.3466ZM43.3127 78.4119V88H39.4561V71.6364H43.1422V74.4169H43.334C43.7104 73.5007 44.3105 72.7727 45.1344 72.233C45.9654 71.6932 46.9917 71.4233 48.2132 71.4233C49.3425 71.4233 50.3262 71.6648 51.1642 72.1477C52.0094 72.6307 52.6628 73.3303 53.1245 74.2464C53.5932 75.1626 53.824 76.2741 53.8169 77.581V88H49.9604V78.1776C49.9604 77.0838 49.6763 76.228 49.1081 75.6101C48.5471 74.9922 47.7694 74.6832 46.775 74.6832C46.1003 74.6832 45.5002 74.8324 44.9746 75.1307C44.4561 75.4219 44.0478 75.8445 43.7495 76.3984C43.4583 76.9524 43.3127 77.6236 43.3127 78.4119ZM70.6706 75.9616L67.155 76.3452C67.0556 75.9901 66.8816 75.6562 66.633 75.3438C66.3915 75.0312 66.0648 74.7791 65.6529 74.5874C65.2409 74.3956 64.7367 74.2997 64.1401 74.2997C63.3375 74.2997 62.6628 74.4737 62.1159 74.8217C61.5762 75.1697 61.3098 75.6207 61.3169 76.1747C61.3098 76.6506 61.4838 77.0376 61.839 77.3359C62.2012 77.6342 62.7978 77.8793 63.6287 78.071L66.4199 78.6676C67.9682 79.0014 69.1188 79.5305 69.8716 80.255C70.6316 80.9794 71.0151 81.9276 71.0222 83.0994C71.0151 84.1293 70.7132 85.0384 70.1167 85.8267C69.5272 86.608 68.7069 87.2187 67.6557 87.6591C66.6046 88.0994 65.3972 88.3196 64.0336 88.3196C62.0307 88.3196 60.4185 87.9006 59.1969 87.0625C57.9753 86.2173 57.2473 85.0419 57.013 83.5362L60.7736 83.174C60.9441 83.9126 61.3063 84.4702 61.8603 84.8466C62.4142 85.223 63.1351 85.4112 64.0229 85.4112C64.9391 85.4112 65.6742 85.223 66.2282 84.8466C66.7892 84.4702 67.0698 84.005 67.0698 83.451C67.0698 82.9822 66.8887 82.5952 66.5265 82.2898C66.1713 81.9844 65.6174 81.75 64.8645 81.5866L62.0733 81.0007C60.5037 80.674 59.3425 80.1236 58.5897 79.3494C57.8368 78.5682 57.464 77.581 57.4711 76.3878C57.464 75.3793 57.7374 74.5057 58.2914 73.767C58.8525 73.0213 59.6301 72.446 60.6245 72.0412C61.6259 71.6293 62.78 71.4233 64.0868 71.4233C66.0044 71.4233 67.5137 71.8317 68.6145 72.6484C69.7225 73.4652 70.4078 74.5696 70.6706 75.9616ZM81.4466 88.3196C79.8059 88.3196 78.389 87.9787 77.1958 87.2969C76.0098 86.608 75.0971 85.6349 74.4579 84.3778C73.8187 83.1136 73.4991 81.6257 73.4991 79.9141C73.4991 78.2308 73.8187 76.7536 74.4579 75.4822C75.1042 74.2038 76.0062 73.2095 77.1639 72.4993C78.3216 71.782 79.6816 71.4233 81.2441 71.4233C82.2527 71.4233 83.2044 71.5866 84.0993 71.9134C85.0012 72.233 85.7967 72.7301 86.4856 73.4048C87.1816 74.0795 87.7285 74.9389 88.1262 75.983C88.524 77.0199 88.7228 78.2557 88.7228 79.6903V80.8729H75.3102V78.2734H85.0261C85.019 77.5348 84.8592 76.8778 84.5467 76.3026C84.2342 75.7202 83.7974 75.2621 83.2363 74.9283C82.6824 74.5945 82.036 74.4276 81.2974 74.4276C80.5091 74.4276 79.8166 74.6193 79.22 75.0028C78.6234 75.3793 78.1582 75.8764 77.8244 76.4943C77.4977 77.1051 77.3308 77.7763 77.3237 78.5078V80.777C77.3237 81.7287 77.4977 82.5455 77.8457 83.2273C78.1937 83.902 78.6802 84.4205 79.3052 84.7827C79.9302 85.1378 80.6618 85.3153 81.4998 85.3153C82.0609 85.3153 82.5687 85.2372 83.0233 85.081C83.4778 84.9176 83.872 84.6797 84.2058 84.3672C84.5396 84.0547 84.7917 83.6676 84.9622 83.206L88.563 83.6108C88.3358 84.5625 87.9025 85.3935 87.2633 86.1037C86.6312 86.8068 85.8216 87.3537 84.8343 87.7443C83.8471 88.1278 82.7179 88.3196 81.4466 88.3196ZM91.9854 88V71.6364H95.7248V74.3636H95.8952C96.1935 73.419 96.7049 72.6911 97.4293 72.1797C98.1609 71.6612 98.9954 71.402 99.9329 71.402C100.146 71.402 100.384 71.4126 100.647 71.4339C100.917 71.4482 101.14 71.473 101.318 71.5085V75.0561C101.154 74.9993 100.895 74.9496 100.54 74.907C100.192 74.8572 99.8548 74.8324 99.5281 74.8324C98.8249 74.8324 98.1928 74.9851 97.6317 75.2905C97.0778 75.5888 96.641 76.0043 96.3214 76.5369C96.0018 77.0696 95.842 77.6839 95.842 78.38V88H91.9854ZM112.93 71.6364V74.6193H103.523V71.6364H112.93ZM105.846 67.7159H109.702V83.0781C109.702 83.5966 109.78 83.9943 109.936 84.2713C110.1 84.5412 110.313 84.7259 110.576 84.8253C110.838 84.9247 111.13 84.9744 111.449 84.9744C111.691 84.9744 111.911 84.9567 112.11 84.9212C112.316 84.8857 112.472 84.8537 112.578 84.8253L113.228 87.8402C113.022 87.9112 112.728 87.9893 112.344 88.0746C111.968 88.1598 111.506 88.2095 110.959 88.2237C109.993 88.2521 109.123 88.1065 108.349 87.7869C107.575 87.4602 106.961 86.956 106.506 86.2741C106.059 85.5923 105.838 84.7401 105.846 83.7173V67.7159ZM123.362 88V85.5391L134.548 69.495H123.298V66.1818H139.449V68.6428L128.274 84.6868H139.513V88H123.362ZM143.167 88V71.6364H147.024V88H143.167ZM145.106 69.3139C144.495 69.3139 143.97 69.1115 143.529 68.7067C143.089 68.2947 142.869 67.8011 142.869 67.2259C142.869 66.6435 143.089 66.1499 143.529 65.745C143.97 65.3331 144.495 65.1271 145.106 65.1271C145.724 65.1271 146.249 65.3331 146.683 65.745C147.123 66.1499 147.343 66.6435 147.343 67.2259C147.343 67.8011 147.123 68.2947 146.683 68.7067C146.249 69.1115 145.724 69.3139 145.106 69.3139ZM150.989 94.1364V71.6364H154.782V74.3423H155.006C155.205 73.9446 155.485 73.522 155.847 73.0746C156.21 72.62 156.7 72.233 157.317 71.9134C157.935 71.5866 158.724 71.4233 159.683 71.4233C160.947 71.4233 162.087 71.7464 163.102 72.3928C164.125 73.032 164.935 73.9801 165.531 75.2372C166.135 76.4872 166.437 78.0213 166.437 79.8395C166.437 81.6364 166.142 83.1634 165.553 84.4205C164.963 85.6776 164.161 86.6364 163.145 87.2969C162.129 87.9574 160.979 88.2876 159.693 88.2876C158.756 88.2876 157.978 88.1314 157.36 87.8189C156.742 87.5064 156.245 87.13 155.869 86.6896C155.499 86.2422 155.212 85.8196 155.006 85.4219H154.846V94.1364H150.989ZM154.771 79.8182C154.771 80.8764 154.92 81.8033 155.219 82.5987C155.524 83.3942 155.961 84.0156 156.529 84.4631C157.104 84.9034 157.8 85.1236 158.617 85.1236C159.469 85.1236 160.183 84.8963 160.759 84.4418C161.334 83.9801 161.767 83.3516 162.058 82.5561C162.357 81.7536 162.506 80.8409 162.506 79.8182C162.506 78.8026 162.36 77.9006 162.069 77.1122C161.778 76.3239 161.344 75.706 160.769 75.2585C160.194 74.8111 159.477 74.5874 158.617 74.5874C157.793 74.5874 157.094 74.804 156.518 75.2372C155.943 75.6705 155.506 76.2777 155.208 77.0589C154.917 77.8402 154.771 78.7599 154.771 79.8182Z" fill="black"/>
</svg>
