<svg width="286" height="247" viewBox="0 0 286 247" fill="none" xmlns="http://www.w3.org/2000/svg">
<g clip-path="url(#clip0_378_1040)">
<path d="M170.195 246.649H164.969C164.312 246.648 163.682 246.388 163.217 245.926C162.752 245.464 162.491 244.838 162.49 244.185V200.897C162.491 200.244 162.752 199.618 163.217 199.156C163.682 198.694 164.312 198.435 164.969 198.434H170.195C170.853 198.435 171.483 198.694 171.947 199.156C172.412 199.618 172.674 200.244 172.674 200.897V244.185C172.674 244.838 172.412 245.464 171.947 245.926C171.483 246.388 170.853 246.648 170.195 246.649Z" fill="#2A9D8F"/>
<path d="M159.15 246.649H153.923C153.266 246.648 152.636 246.388 152.171 245.926C151.706 245.464 151.445 244.838 151.444 244.185V200.897C151.445 200.244 151.706 199.618 152.171 199.156C152.636 198.694 153.266 198.435 153.923 198.434H159.15C159.807 198.435 160.437 198.694 160.902 199.156C161.366 199.618 161.628 200.244 161.629 200.897V244.185C161.628 244.838 161.366 245.464 160.902 245.926C160.437 246.388 159.807 246.648 159.15 246.649Z" fill="#2A9D8F"/>
<path d="M21.4959 106.569C20.4378 110.972 19.1012 112.02 17.8352 111.72C16.5693 111.419 15.8534 109.884 16.9115 105.481C17.9696 101.078 21.6669 95.7752 21.6669 95.7752C21.6669 95.7752 22.554 102.166 21.4959 106.569Z" fill="#CCCCCC"/>
<path d="M18.6629 183.283C17.6048 187.686 16.2682 188.734 15.0023 188.433C13.7364 188.133 13.0205 186.598 14.0786 182.195C15.1367 177.792 18.834 172.489 18.834 172.489C18.834 172.489 19.721 178.88 18.6629 183.283Z" fill="#CCCCCC"/>
<path d="M173.704 46.1767C173.704 46.1767 176.129 41.078 172.21 39.7524C168.291 38.4267 168.573 43.7667 168.573 43.7667L173.34 46.5781" fill="#3F3D56"/>
<path d="M91.3588 61.1782L83.2365 67.7212C83.2365 67.7212 205.086 108.415 218.984 116.488L217.612 105.085L206.1 91.1506L183.799 77.0138L147.802 65.8858L108.572 51.8664L91.3588 61.1782Z" fill="#2A9D8F"/>
<path d="M153.416 77.45L125.848 145.821C125.848 145.821 121.442 157.142 131.179 159.312C137.033 160.617 140.128 157.088 141.665 154.066C143.307 150.838 138.85 148 136.623 150.86C136.586 150.907 136.55 150.954 136.514 151.002C136.459 151.074 130.619 155.578 130.622 149.414C130.636 147.993 130.933 146.589 131.495 145.282L158.587 80.6228L153.416 77.45Z" fill="#3F3D56"/>
<path d="M170.906 43.2748C170.906 43.2748 163.149 42.1492 158.785 39.6993C158.785 39.6993 110.909 29.573 83.2662 67.3494C83.2662 67.3494 213.401 97.2843 219.014 116.116C219.014 116.116 227.181 81.2668 183.915 49.0989C183.915 49.0989 173.33 45.4433 170.906 43.2748Z" fill="#3F3D56"/>
<path d="M23.2945 151.92C22.6489 154.606 21.8333 155.246 21.0609 155.062C20.2884 154.879 19.8516 153.942 20.4972 151.256C21.1429 148.569 23.3989 145.333 23.3989 145.333C23.3989 145.333 23.9402 149.233 23.2945 151.92Z" fill="#CCCCCC"/>
<path d="M3.10986 164.94C2.46421 167.626 1.64863 168.266 0.876166 168.083C0.103706 167.899 -0.333116 166.963 0.312521 164.276C0.958158 161.589 3.21423 158.353 3.21423 158.353C3.21423 158.353 3.7555 162.253 3.10986 164.94Z" fill="#CCCCCC"/>
<path d="M151.457 37.9495C150.399 42.3525 149.062 43.4004 147.796 43.1C146.53 42.7996 145.814 41.2646 146.872 36.8616C147.931 32.4587 151.628 27.1555 151.628 27.1555C151.628 27.1555 152.515 33.5465 151.457 37.9495Z" fill="#CCCCCC"/>
<path d="M156.088 6.58644C155.443 9.27311 154.627 9.91257 153.855 9.72926C153.082 9.54595 152.645 8.60927 153.291 5.9226C153.937 3.23594 156.193 0 156.193 0C156.193 0 156.734 3.8998 156.088 6.58644Z" fill="#CCCCCC"/>
<path d="M135.904 19.6066C135.258 22.2933 134.443 22.9327 133.67 22.7494C132.898 22.5661 132.461 21.6294 133.106 18.9428C133.752 16.2561 136.008 13.0201 136.008 13.0201C136.008 13.0201 136.549 16.92 135.904 19.6066Z" fill="#CCCCCC"/>
<path d="M95.5063 175.893C94.4482 180.296 93.1116 181.344 91.8457 181.043C90.5797 180.743 89.8639 179.208 90.922 174.805C91.9801 170.402 95.6774 165.099 95.6774 165.099C95.6774 165.099 96.5644 171.49 95.5063 175.893Z" fill="#CCCCCC"/>
<path d="M100.138 144.53C99.4923 147.216 98.6767 147.856 97.9042 147.673C97.1318 147.489 96.695 146.553 97.3406 143.866C97.9862 141.179 100.242 137.943 100.242 137.943C100.242 137.943 100.784 141.843 100.138 144.53Z" fill="#CCCCCC"/>
<path d="M79.9532 157.55C79.3076 160.237 78.492 160.876 77.7195 160.693C76.9471 160.509 76.5103 159.573 77.1559 156.886C77.8015 154.199 80.0576 150.963 80.0576 150.963C80.0576 150.963 80.5989 154.863 79.9532 157.55Z" fill="#CCCCCC"/>
<path d="M74.6134 44.6355C73.5553 49.0385 72.2187 50.0864 70.9528 49.786C69.6869 49.4856 68.971 47.9506 70.0291 43.5476C71.0872 39.1447 74.7845 33.8415 74.7845 33.8415C74.7845 33.8415 75.6715 40.2325 74.6134 44.6355Z" fill="#CCCCCC"/>
<path d="M71.7805 121.349C70.7224 125.752 69.3858 126.8 68.1198 126.499C66.8539 126.199 66.138 124.664 67.1961 120.261C68.2542 115.858 71.9515 110.555 71.9515 110.555C71.9515 110.555 72.8386 116.946 71.7805 121.349Z" fill="#CCCCCC"/>
<path d="M76.4121 89.9858C75.7665 92.6725 74.9509 93.312 74.1784 93.1287C73.406 92.9453 72.9691 92.0087 73.6148 89.322C74.2604 86.6353 76.5165 83.3994 76.5165 83.3994C76.5165 83.3994 77.0577 87.2992 76.4121 89.9858Z" fill="#CCCCCC"/>
<path d="M56.2274 103.006C55.5818 105.693 54.7662 106.332 53.9937 106.149C53.2213 105.965 52.7844 105.029 53.4301 102.342C54.0757 99.6555 56.3318 96.4195 56.3318 96.4195C56.3318 96.4195 56.873 100.319 56.2274 103.006Z" fill="#CCCCCC"/>
<path d="M128.793 47.8026C127.735 52.2055 126.399 53.2535 125.133 52.9531C123.867 52.6527 123.151 51.1176 124.209 46.7147C125.267 42.3117 128.964 37.0086 128.964 37.0086C128.964 37.0086 129.851 43.3996 128.793 47.8026Z" fill="#CCCCCC"/>
<path d="M125.96 124.516C124.902 128.919 123.566 129.967 122.3 129.666C121.034 129.366 120.318 127.831 121.376 123.428C122.434 119.025 126.131 113.722 126.131 113.722C126.131 113.722 127.018 120.113 125.96 124.516Z" fill="#CCCCCC"/>
<path d="M130.592 93.1529C129.946 95.8396 129.131 96.479 128.358 96.2957C127.586 96.1124 127.149 95.1757 127.795 92.4891C128.44 89.8024 130.696 86.5665 130.696 86.5665C130.696 86.5665 131.238 90.4663 130.592 93.1529Z" fill="#CCCCCC"/>
<path d="M179.078 62.5822C178.02 66.9852 176.683 68.0331 175.417 67.7327C174.151 67.4323 173.436 65.8973 174.494 61.4943C175.552 57.0914 179.249 51.7882 179.249 51.7882C179.249 51.7882 180.136 58.1792 179.078 62.5822Z" fill="#CCCCCC"/>
<path d="M163.525 44.2393C162.879 46.926 162.064 47.5655 161.291 47.3822C160.519 47.1989 160.082 46.2622 160.728 43.5755C161.373 40.8888 163.629 37.6529 163.629 37.6529C163.629 37.6529 164.171 41.5527 163.525 44.2393Z" fill="#CCCCCC"/>
<path d="M204.22 41.8203C203.162 46.2233 201.826 47.2713 200.56 46.9709C199.294 46.6704 198.578 45.1354 199.636 40.7325C200.694 36.3295 204.391 31.0263 204.391 31.0263C204.391 31.0263 205.278 37.4174 204.22 41.8203Z" fill="#CCCCCC"/>
<path d="M201.387 118.534C200.329 122.937 198.993 123.985 197.727 123.684C196.461 123.384 195.745 121.849 196.803 117.446C197.861 113.043 201.558 107.74 201.558 107.74C201.558 107.74 202.445 114.131 201.387 118.534Z" fill="#CCCCCC"/>
<path d="M206.019 87.1707C205.373 89.8573 204.558 90.4968 203.785 90.3135C203.013 90.1302 202.576 89.1935 203.222 86.5068C203.867 83.8202 206.123 80.5842 206.123 80.5842C206.123 80.5842 206.665 84.484 206.019 87.1707Z" fill="#CCCCCC"/>
<path d="M254.505 56.6C253.447 61.0029 252.11 62.0509 250.844 61.7505C249.578 61.4501 248.863 59.915 249.921 55.5121C250.979 51.1091 254.676 45.806 254.676 45.806C254.676 45.806 255.563 52.197 254.505 56.6Z" fill="#CCCCCC"/>
<path d="M238.952 38.2571C238.306 40.9438 237.491 41.5832 236.718 41.3999C235.946 41.2166 235.509 40.2799 236.155 37.5933C236.8 34.9066 239.056 31.6707 239.056 31.6707C239.056 31.6707 239.598 35.5705 238.952 38.2571Z" fill="#CCCCCC"/>
<path d="M233.612 92.1415C232.554 96.5444 231.217 97.5924 229.951 97.292C228.685 96.9916 227.97 95.4565 229.028 91.0536C230.086 86.6506 233.783 81.3475 233.783 81.3475C233.783 81.3475 234.67 87.7385 233.612 92.1415Z" fill="#CCCCCC"/>
<path d="M230.779 168.855C229.721 173.258 228.384 174.306 227.118 174.005C225.852 173.705 225.137 172.17 226.195 167.767C227.253 163.364 230.95 158.061 230.95 158.061C230.95 158.061 231.837 164.452 230.779 168.855Z" fill="#CCCCCC"/>
<path d="M235.411 137.492C234.765 140.178 233.949 140.818 233.177 140.635C232.404 140.451 231.968 139.515 232.613 136.828C233.259 134.141 235.515 130.905 235.515 130.905C235.515 130.905 236.056 134.805 235.411 137.492Z" fill="#CCCCCC"/>
<path d="M283.897 106.921C282.838 111.324 281.502 112.372 280.236 112.072C278.97 111.771 278.254 110.236 279.312 105.833C280.37 101.43 284.068 96.1271 284.068 96.1271C284.068 96.1271 284.955 102.518 283.897 106.921Z" fill="#CCCCCC"/>
<path d="M268.344 88.5782C267.698 91.2649 266.882 91.9044 266.11 91.7211C265.337 91.5378 264.901 90.6011 265.546 87.9144C266.192 85.2277 268.448 81.9918 268.448 81.9918C268.448 81.9918 268.989 85.8916 268.344 88.5782Z" fill="#CCCCCC"/>
<path d="M165.692 151.017C175.666 151.017 183.752 142.982 183.752 133.07C183.752 123.158 175.666 115.123 165.692 115.123C155.717 115.123 147.632 123.158 147.632 133.07C147.632 142.982 155.717 151.017 165.692 151.017Z" fill="#2A9D8F"/>
<path d="M151.159 140.604C149.989 140.571 148.531 140.531 147.41 139.716C147.075 139.464 146.801 139.141 146.605 138.772C146.409 138.403 146.297 137.996 146.276 137.579C146.256 137.283 146.305 136.986 146.419 136.712C146.534 136.438 146.71 136.194 146.935 135.998C147.521 135.506 148.378 135.39 149.3 135.66L148.344 128.718L149.046 128.623L150.17 136.784L149.584 136.516C148.904 136.207 147.972 136.049 147.392 136.536C147.25 136.663 147.139 136.821 147.068 136.998C146.998 137.174 146.969 137.365 146.984 137.554C147.001 137.865 147.085 138.167 147.231 138.442C147.376 138.717 147.58 138.958 147.827 139.148C148.7 139.782 149.862 139.864 151.179 139.9L151.159 140.604Z" fill="#2F2E41"/>
<path d="M156.914 129.317H153.1V130.021H156.914V129.317Z" fill="#2F2E41"/>
<path d="M166.955 115.07C167.088 112.949 167.678 110.881 168.685 109.005C169.693 107.13 171.094 105.492 172.794 104.202C174.55 102.909 176.577 102.027 178.723 101.62C180.87 101.213 183.081 101.292 185.193 101.852C187.291 102.394 189.238 103.402 190.887 104.8C192.536 106.198 193.844 107.95 194.712 109.924C195.587 111.883 196.023 114.007 195.991 116.15C195.895 118.48 195.312 120.765 194.28 122.859C193.215 125.165 191.872 127.328 190.706 129.582C189.557 131.805 188.566 134.104 187.739 136.464C186.058 141.273 185.066 146.292 184.792 151.375C184.359 159.388 185.13 171.087 194.233 174.162C196.548 174.944 199.045 175.089 201.472 175.083C204.028 175.114 206.578 174.817 209.057 174.2C213.355 173.06 217.434 170.382 219.265 166.222C219.687 165.261 219.97 164.246 220.106 163.206C220.144 162.921 219.834 162.681 219.574 162.679C219.435 162.682 219.301 162.739 219.202 162.837C219.104 162.935 219.047 163.067 219.043 163.206C218.45 167.64 214.733 171.039 210.697 172.568C208.339 173.417 205.861 173.893 203.354 173.979C200.859 174.104 198.268 174.085 195.825 173.514C193.65 173.047 191.671 171.929 190.154 170.311C188.802 168.764 187.793 166.951 187.194 164.99C185.757 160.631 185.606 155.84 185.859 151.297C186.145 146.231 187.158 141.231 188.868 136.449C189.732 134.035 190.774 131.688 191.986 129.426C193.169 127.214 194.484 125.065 195.481 122.759C196.454 120.64 196.989 118.348 197.055 116.019C197.063 113.868 196.632 111.738 195.789 109.758C194.96 107.769 193.717 105.977 192.141 104.5C190.566 103.022 188.694 101.893 186.649 101.185C184.567 100.465 182.358 100.186 180.161 100.364C177.965 100.543 175.83 101.176 173.895 102.223C172.054 103.275 170.44 104.679 169.148 106.354C167.857 108.029 166.912 109.942 166.368 111.982C166.104 112.993 165.945 114.028 165.893 115.07C165.858 115.749 166.92 115.747 166.955 115.07Z" fill="#2F2E41"/>
<path d="M170.487 115.441C170.777 113.483 171.764 111.693 173.269 110.397C174.869 109.065 176.92 108.388 179.004 108.506C179.688 108.54 179.686 107.484 179.004 107.45C176.739 107.348 174.515 108.078 172.756 109.5C170.997 110.921 169.824 112.936 169.463 115.16C169.361 115.825 170.384 116.111 170.487 115.441Z" fill="#2F2E41"/>
<path d="M170.314 116.566L165.27 114.911C164.825 114.765 164.455 114.448 164.244 114.032C164.033 113.615 163.997 113.132 164.144 112.689C164.292 112.245 164.61 111.879 165.029 111.669C165.449 111.459 165.935 111.423 166.381 111.569L171.425 113.224C171.871 113.371 172.24 113.687 172.451 114.104C172.662 114.521 172.698 115.004 172.551 115.447C172.404 115.89 172.085 116.257 171.666 116.467C171.246 116.677 170.76 116.712 170.314 116.566Z" fill="#2F2E41"/>
<path d="M178.49 216.537H145.277C144.667 216.537 144.082 216.295 143.65 215.867C143.219 215.438 142.976 214.856 142.975 214.25V209.056C142.976 208.45 143.219 207.868 143.65 207.44C144.082 207.011 144.667 206.77 145.277 206.769H178.49C179.1 206.77 179.685 207.011 180.116 207.44C180.548 207.868 180.791 208.45 180.791 209.056V214.25C180.791 214.856 180.548 215.438 180.116 215.867C179.685 216.295 179.1 216.537 178.49 216.537Z" fill="#CCCCCC"/>
<path d="M185.565 208.676C185.548 208.676 185.532 208.676 185.515 208.676L139.072 207.704C138.731 207.697 138.395 207.614 138.089 207.462C137.784 207.31 137.516 207.092 137.306 206.824C137.096 206.556 136.948 206.246 136.874 205.914C136.8 205.583 136.801 205.239 136.877 204.908L148.185 155.713C148.299 155.207 148.583 154.754 148.991 154.431C149.4 154.108 149.907 153.932 150.428 153.935H157.998C163.329 153.953 168.494 155.785 172.631 159.126C176.769 162.466 179.631 167.114 180.74 172.296L187.817 205.92C187.887 206.253 187.881 206.597 187.801 206.928C187.72 207.258 187.566 207.567 187.351 207.831C187.135 208.094 186.863 208.307 186.554 208.454C186.245 208.6 185.907 208.676 185.565 208.676Z" fill="#2F2E41"/>
<path d="M155.727 180.844C155.122 180.845 154.541 180.608 154.11 180.185L123.116 149.768C122.9 149.557 122.729 149.305 122.612 149.029C122.495 148.752 122.433 148.455 122.431 148.154C122.429 147.854 122.487 147.556 122.601 147.278C122.715 147 122.883 146.747 123.095 146.533L126.768 142.837C127.197 142.406 127.781 142.161 128.391 142.157C129.002 142.154 129.589 142.391 130.023 142.817L161.017 173.235C161.451 173.661 161.697 174.242 161.701 174.848C161.704 175.454 161.466 176.038 161.038 176.47L157.365 180.165C157.151 180.381 156.896 180.552 156.615 180.668C156.334 180.785 156.032 180.845 155.727 180.844Z" fill="#2A9D8F"/>
<path d="M154.294 181.765L140.665 168.55C140.24 168.138 139.991 167.579 139.97 166.99C139.949 166.4 140.156 165.824 140.551 165.383L146.287 158.958C146.514 158.704 146.794 158.503 147.108 158.37C147.422 158.237 147.762 158.174 148.103 158.187C148.444 158.2 148.778 158.288 149.081 158.444C149.384 158.601 149.649 158.822 149.855 159.092L164.438 173.861C164.847 174.314 165.058 174.91 165.026 175.518C164.994 176.125 164.721 176.696 164.266 177.104L157.56 181.937C157.104 182.344 156.504 182.555 155.892 182.523C155.279 182.49 154.705 182.218 154.294 181.765Z" fill="#2F2E41"/>
<path d="M285.578 247H24.1358C24.0803 247 24.0254 246.989 23.9741 246.968C23.9228 246.947 23.8762 246.917 23.8369 246.878C23.7976 246.839 23.7664 246.793 23.7452 246.742C23.7239 246.691 23.713 246.636 23.713 246.581C23.713 246.526 23.7239 246.471 23.7452 246.42C23.7664 246.369 23.7976 246.323 23.8369 246.284C23.8762 246.245 23.9228 246.215 23.9741 246.194C24.0254 246.173 24.0803 246.162 24.1358 246.162H285.578C285.634 246.162 285.689 246.173 285.74 246.194C285.791 246.215 285.838 246.245 285.877 246.284C285.917 246.323 285.948 246.369 285.969 246.42C285.99 246.471 286.001 246.526 286.001 246.581C286.001 246.636 285.99 246.691 285.969 246.742C285.948 246.793 285.917 246.839 285.877 246.878C285.838 246.917 285.791 246.947 285.74 246.968C285.689 246.989 285.634 247 285.578 247Z" fill="#3F3D56"/>
</g>
<defs>
<clipPath id="clip0_378_1040">
<rect width="286" height="247" fill="white"/>
</clipPath>
</defs>
</svg>
