<svg width="24" height="24" viewBox="0 0 24 24" fill="none" xmlns="http://www.w3.org/2000/svg">
<path d="M13.002 6.00996C16.171 6.00996 17.968 8.10696 18.23 10.64H18.31C18.7943 10.6393 19.2739 10.7341 19.7216 10.9188C20.1692 11.1035 20.5761 11.3747 20.9189 11.7167C21.2618 12.0587 21.5339 12.4649 21.7197 12.9121C21.9056 13.3593 22.0015 13.8387 22.002 14.323C22.0014 14.8071 21.9053 15.2865 21.7194 15.7335C21.5335 16.1806 21.2614 16.5867 20.9186 16.9286C20.5757 17.2705 20.1689 17.5415 19.7213 17.7262C19.2738 17.9109 18.7942 18.0056 18.31 18.005L17.69 18.004L16.14 20.628C16.0449 20.7924 15.891 20.9146 15.7092 20.97C15.5275 21.0253 15.3316 21.0096 15.161 20.9261C14.9904 20.8426 14.8578 20.6974 14.7901 20.52C14.7223 20.3425 14.7244 20.1459 14.796 19.97L14.841 19.878L15.959 18.004H13.823L12.272 20.628C12.1769 20.7924 12.023 20.9146 11.8412 20.97C11.6595 21.0253 11.4636 21.0096 11.293 20.9261C11.1224 20.8426 10.9898 20.6974 10.9221 20.52C10.8543 20.3425 10.8564 20.1459 10.928 19.97L10.973 19.878L12.091 18.004H9.955L8.40401 20.628C8.30891 20.7924 8.15496 20.9146 7.97324 20.97C7.79152 21.0253 7.59557 21.0096 7.42496 20.9261C7.25435 20.8426 7.12179 20.6974 7.05405 20.52C6.98631 20.3425 6.98844 20.1459 7.06 19.97L7.105 19.878L8.222 18.004L7.695 18.005C7.21082 18.0056 6.73125 17.9109 6.28367 17.7262C5.83609 17.5415 5.42927 17.2705 5.08644 16.9286C4.7436 16.5867 4.47147 16.1806 4.28557 15.7335C4.09968 15.2865 4.00366 14.8071 4.003 14.323C4.00353 13.8387 4.09945 13.3593 4.28529 12.9121C4.47112 12.4649 4.74324 12.0587 5.08608 11.7167C5.42893 11.3747 5.8358 11.1035 6.28344 10.9188C6.73108 10.7341 7.21074 10.6393 7.695 10.64H7.775C8.038 8.08996 9.834 6.00996 13.002 6.00996V6.00996ZM13.002 7.50796C10.931 7.50796 9.125 9.14096 9.125 11.397C9.125 11.754 8.806 12.035 8.441 12.035H7.751C6.49 12.035 5.467 13.036 5.467 14.271C5.467 15.506 6.49 16.508 7.751 16.508H18.254C19.514 16.508 20.537 15.506 20.537 14.271C20.537 13.036 19.515 12.035 18.254 12.035H17.563C17.198 12.035 16.879 11.755 16.879 11.397C16.879 9.11196 15.073 7.50696 13.002 7.50696V7.50796ZM4.368 10.166C4.43718 10.3334 4.44339 10.5203 4.38549 10.692C4.32758 10.8637 4.20948 11.0086 4.053 11.1L3.962 11.146L3.036 11.529C2.86049 11.6015 2.66401 11.6047 2.48621 11.538C2.30841 11.4713 2.16253 11.3396 2.07801 11.1696C1.99349 10.9995 1.97663 10.8038 2.03082 10.6217C2.08501 10.4397 2.20623 10.2851 2.37 10.189L2.462 10.143L3.388 9.75996C3.47901 9.72226 3.57655 9.70285 3.67505 9.70286C3.77356 9.70286 3.8711 9.72226 3.9621 9.75996C4.05311 9.79767 4.13579 9.85292 4.20544 9.92259C4.27508 9.99225 4.33032 10.0749 4.368 10.166V10.166ZM10.855 5.33196L10.683 5.38996C10.1629 5.57225 9.67134 5.82746 9.223 6.14796C8.74153 5.99156 8.22335 5.98867 7.74016 6.13967C7.25697 6.29068 6.83265 6.58812 6.52591 6.99085C6.21917 7.39357 6.04517 7.88168 6.02799 8.38762C6.01081 8.89357 6.15129 9.39235 6.43 9.81496C5.94263 9.95186 5.48112 10.1681 5.064 10.455C4.60567 9.66719 4.43447 8.74494 4.57954 7.84515C4.7246 6.94537 5.17696 6.12365 5.85965 5.51983C6.54233 4.91602 7.41315 4.56741 8.32392 4.53334C9.23468 4.49927 10.1291 4.78184 10.855 5.33296V5.33196ZM2.941 5.36296L3.047 5.39796L3.973 5.78196C4.14713 5.85495 4.28732 5.99093 4.36558 6.16275C4.44385 6.33456 4.45443 6.52958 4.39522 6.70886C4.33601 6.88814 4.21136 7.03849 4.04615 7.12989C3.88095 7.2213 3.68735 7.24703 3.504 7.20196L3.4 7.16896L2.474 6.78496C2.30034 6.71175 2.1606 6.57585 2.0826 6.40429C2.00459 6.23272 1.99403 6.03808 2.05303 5.85909C2.11202 5.6801 2.23623 5.52988 2.40096 5.43832C2.56569 5.34675 2.75885 5.32056 2.942 5.36496L2.941 5.36296ZM6.756 2.37696L6.802 2.46796L7.185 3.39496C7.25648 3.57031 7.25897 3.76622 7.19199 3.94333C7.12501 4.12045 6.99351 4.26568 6.82388 4.34986C6.65426 4.43404 6.45907 4.45094 6.27751 4.39717C6.09594 4.34339 5.94143 4.22293 5.845 4.05996L5.799 3.96896L5.416 3.04196C5.34453 2.8666 5.34204 2.6707 5.40902 2.49358C5.476 2.31646 5.6075 2.17124 5.77713 2.08706C5.94675 2.00288 6.14194 1.98598 6.3235 2.03975C6.50507 2.09352 6.65958 2.21399 6.756 2.37696V2.37696ZM11.11 2.05896C11.2758 2.12785 11.4114 2.25394 11.4922 2.41432C11.5729 2.5747 11.5934 2.75873 11.55 2.93296L11.515 3.03796L11.132 3.96496C11.059 4.13908 10.923 4.27927 10.7512 4.35754C10.5794 4.4358 10.3844 4.44639 10.2051 4.38717C10.0258 4.32796 9.87547 4.20331 9.78407 4.03811C9.69266 3.8729 9.66693 3.6793 9.712 3.49596L9.74601 3.39096L10.13 2.46396C10.2063 2.28033 10.3524 2.13451 10.5362 2.05857C10.7199 1.98262 10.9263 1.98276 11.11 2.05896Z" fill="black"/>
</svg>
