<svg width="490" height="361" viewBox="0 0 490 361" fill="none" xmlns="http://www.w3.org/2000/svg">
<g clip-path="url(#clip0_384_1159)">
<path d="M454.858 359.588C448.816 359.337 443.311 356.898 440.821 353.119C440.705 352.942 440.595 352.763 440.492 352.581C439.583 350.971 439.299 349.12 440.293 347.533C441.287 345.946 443.772 344.741 446.264 344.992C448.755 345.242 450.704 347.232 449.672 348.807C449.444 345.624 449.253 342.28 451.818 339.509C453.23 338.062 455.072 337.109 457.069 336.794C462.237 335.885 465.669 338.809 466.356 341.759C466.863 343.938 466.163 346.152 465.465 348.308C467.615 345.765 472.727 344.634 476.644 345.835C480.561 347.036 482.731 350.4 481.394 353.195C479.818 356.484 474.565 358.184 469.685 359.083C465.654 359.825 459.612 359.786 454.858 359.588Z" fill="#F2F2F2"/>
<path d="M35.6523 359.588C41.694 359.337 47.1985 356.898 49.6881 353.119C49.8049 352.942 49.9146 352.763 50.0172 352.581C50.9264 350.971 51.2104 349.12 50.2163 347.533C49.2222 345.946 46.7371 344.741 44.2458 344.992C41.7545 345.242 39.805 347.232 40.8374 348.807C41.0655 345.624 41.2566 342.28 38.6917 339.509C37.2799 338.062 35.438 337.109 33.441 336.794C28.2724 335.885 24.8411 338.809 24.1538 341.759C23.6468 343.938 24.3472 346.152 25.0447 348.308C22.8951 345.765 17.783 344.634 13.8658 345.835C9.94857 347.036 7.77779 350.4 9.11585 353.195C10.6917 356.484 15.9453 358.184 20.8253 359.083C24.856 359.825 30.8978 359.786 35.6523 359.588Z" fill="#F2F2F2"/>
<path d="M490 359.035H0V361H490V359.035Z" fill="#CCCCCC"/>
<path d="M197.572 61.7443C197.553 62.1396 197.565 62.5359 197.608 62.9294L170.452 85.729L162.353 82.7956L156.331 94.4436L174.036 102.875L203.724 69.546C205.223 69.818 206.77 69.627 208.158 68.9984C209.546 68.3698 210.709 67.3333 211.494 66.0269C212.279 64.7205 212.648 63.2061 212.551 61.685C212.455 60.1639 211.898 58.7082 210.954 57.5115C210.01 56.3149 208.725 55.434 207.269 54.9859C205.812 54.5379 204.254 54.544 202.802 55.0035C201.349 55.4629 200.071 56.3539 199.136 57.5579C198.202 58.7619 197.656 60.2219 197.572 61.7437L197.572 61.7443Z" fill="#A0616A"/>
<path d="M161.151 100.031L134.927 90.5596C133.735 90.1291 132.64 89.468 131.703 88.614C130.766 87.7599 130.007 86.7297 129.468 85.582C128.929 84.4344 128.622 83.1919 128.563 81.9253C128.505 80.6588 128.696 79.3932 129.126 78.2006C129.556 77.0081 130.217 75.912 131.071 74.9749C131.925 74.0378 132.955 73.2782 134.102 72.7393C136.418 71.6509 139.073 71.5279 141.48 72.3972L167.704 81.8689C168.506 82.1586 169.161 82.7552 169.523 83.5276C169.886 84.3 169.927 85.1849 169.638 85.9876L165.269 98.0965C164.978 98.8985 164.382 99.5526 163.61 99.9152C162.838 100.278 161.954 100.319 161.151 100.031L161.151 100.031Z" fill="#CCCCCC"/>
<path d="M141.945 192.281H150.71L154.879 158.463H141.944L141.945 192.281Z" fill="#A0616A"/>
<path d="M167.611 200.423L140.067 200.425L140.066 189.778L156.968 189.777C158.366 189.777 159.75 190.052 161.041 190.587C162.332 191.122 163.505 191.906 164.493 192.895C165.482 193.884 166.266 195.057 166.801 196.349C167.336 197.641 167.611 199.025 167.611 200.423Z" fill="#2F2E41"/>
<path d="M120.286 180.955L127.455 185.997L150.31 160.732L139.729 153.29L120.286 180.955Z" fill="#A0616A"/>
<path d="M135.737 200.654L113.205 184.809L119.324 176.1L133.151 185.823C134.294 186.627 135.268 187.648 136.016 188.829C136.765 190.009 137.274 191.325 137.514 192.702C137.754 194.08 137.721 195.491 137.416 196.855C137.111 198.219 136.54 199.51 135.737 200.654Z" fill="#2F2E41"/>
<path d="M161.123 131.362C161.123 131.362 182.994 128.78 179.068 142.978C175.143 157.176 131.4 169.439 131.4 169.439L161.123 131.362Z" fill="#A0616A"/>
<path d="M146.069 58.9136C155.765 58.9136 163.626 51.0495 163.626 41.3486C163.626 31.6477 155.765 23.7836 146.069 23.7836C136.372 23.7836 128.511 31.6477 128.511 41.3486C128.511 51.0495 136.372 58.9136 146.069 58.9136Z" fill="#A0616A"/>
<path d="M90.0751 166.532C80.0842 154.892 76.5885 137.032 92.5208 122.177C96.4557 118.598 100.911 115.638 105.735 113.397L118.575 77.4714C119.908 73.7195 122.354 70.4637 125.585 68.1384C128.817 65.8131 132.68 64.529 136.66 64.4574C140.524 64.2906 144.344 65.3246 147.597 67.4174C150.85 69.5101 153.375 72.5591 154.826 76.1454C156.395 79.7939 156.574 83.8904 155.331 87.6621C151.508 99.5702 146.488 111.06 140.348 121.955L141.012 127.268L173.469 130.154L173.166 130.647C173.008 130.904 157.123 155.117 136.801 171.188C129.853 176.683 122.668 178.961 115.887 178.96C105.604 178.963 96.2509 173.725 90.0751 166.532Z" fill="#CCCCCC"/>
<path d="M87.0123 46.8599C90.1185 43.1568 91.4508 38.3136 92.5231 33.5994C94.2188 26.1412 95.5311 18.4291 99.2989 11.7732C103.067 5.1173 109.99 -0.397449 117.624 0.0225047C125.215 0.440176 131.352 6.54947 134.609 13.5004C135.398 13.1942 136.242 13.057 137.087 13.0978C137.932 13.1386 138.759 13.3564 139.514 13.7372C141.862 15.0233 142.739 18.6791 140.785 20.5095C142.841 19.5305 145.079 18.9952 147.355 18.9384C149.631 18.8817 151.893 19.3048 153.994 20.1803C156.697 21.3312 159.029 23.2056 160.736 25.5972C162.442 27.9888 163.456 30.8049 163.666 33.7358C163.748 34.9252 163.584 36.1189 163.186 37.2427C162.788 38.3665 162.164 39.3965 161.351 40.269C157.983 43.7382 153.218 42.5417 148.981 41.6578C144.98 40.8231 140.106 40.5977 137.852 44.4121C136.963 46.0014 136.715 47.8699 137.156 49.6364C138.02 53.4439 140.838 56.096 143.572 58.6346L144.019 59.4653C134.366 61.3483 123.828 54.7534 121.294 45.2468C118.759 35.7402 124.624 24.7729 133.934 21.6016C133.314 21.6216 132.7 21.4754 132.156 21.1784C131.611 20.8813 131.156 20.444 130.838 19.9119C130.519 19.3798 130.348 18.7721 130.343 18.1517C130.338 17.5314 130.498 16.9209 130.808 16.3836C128.232 14.9389 125.317 14.2102 122.364 14.273C117.555 14.5885 113.394 18.0126 110.891 22.1328C108.389 26.2531 107.255 31.034 106.108 35.7168C104.96 40.3997 103.718 45.1709 101.042 49.1827C99.1886 51.9598 96.7121 54.265 93.81 55.9145C90.908 57.564 87.6607 58.5122 84.3273 58.6832C80.994 58.8543 77.6668 58.2435 74.6112 56.8998C71.5557 55.556 68.8564 53.5163 66.7288 50.9436C70.0911 52.5747 73.895 53.0585 77.5584 52.321C81.2217 51.5834 84.5425 49.6652 87.0123 46.8599Z" fill="#2F2E41"/>
<path d="M222.455 94.6415C218.078 94.6415 213.798 93.3429 210.159 90.9098C206.519 88.4768 203.682 85.0186 202.007 80.9725C200.331 76.9265 199.893 72.4744 200.747 68.1791C201.601 63.8839 203.709 59.9385 206.805 56.8418C209.9 53.7451 213.844 51.6362 218.137 50.7818C222.431 49.9274 226.881 50.3659 230.925 52.0418C234.97 53.7177 238.427 56.5558 240.859 60.1971C243.291 63.8385 244.589 68.1195 244.589 72.4989C244.582 78.3694 242.248 83.9976 238.099 88.1487C233.949 92.2998 228.323 94.6348 222.455 94.6415ZM222.455 54.0468C218.807 54.0468 215.241 55.129 212.208 57.1565C209.175 59.1841 206.811 62.0659 205.415 65.4376C204.019 68.8093 203.653 72.5194 204.365 76.0988C205.077 79.6782 206.833 82.966 209.413 85.5466C211.993 88.1272 215.279 89.8846 218.857 90.5966C222.435 91.3085 226.143 90.9431 229.514 89.5465C232.884 88.1499 235.765 85.7848 237.791 82.7504C239.818 79.716 240.9 76.1484 240.9 72.4989C240.894 67.6068 238.949 62.9166 235.492 59.4574C232.034 55.9981 227.345 54.0523 222.455 54.0468Z" fill="#2A9D8F"/>
<path d="M221.729 44.8207C221.24 44.8207 220.771 44.6263 220.425 44.2802C220.079 43.9342 219.885 43.4649 219.885 42.9755V21.7555C219.885 21.2661 220.079 20.7968 220.425 20.4507C220.771 20.1047 221.24 19.9103 221.729 19.9103C222.218 19.9103 222.687 20.1047 223.033 20.4507C223.379 20.7968 223.573 21.2661 223.573 21.7555V42.9755C223.573 43.4649 223.379 43.9342 223.033 44.2802C222.687 44.6263 222.218 44.8207 221.729 44.8207Z" fill="#2A9D8F"/>
<path d="M192.944 73.6179H171.733C171.243 73.6179 170.774 73.4235 170.428 73.0775C170.083 72.7314 169.888 72.2621 169.888 71.7727C169.888 71.2833 170.083 70.814 170.428 70.4679C170.774 70.1219 171.243 69.9275 171.733 69.9275H192.944C193.433 69.9275 193.902 70.1219 194.248 70.4679C194.594 70.814 194.788 71.2833 194.788 71.7727C194.788 72.2621 194.594 72.7314 194.248 73.0775C193.902 73.4235 193.433 73.6179 192.944 73.6179Z" fill="#2A9D8F"/>
<path d="M270.411 73.6179H249.2C248.711 73.6179 248.242 73.4235 247.896 73.0775C247.55 72.7314 247.355 72.2621 247.355 71.7727C247.355 71.2833 247.55 70.814 247.896 70.4679C248.242 70.1219 248.711 69.9275 249.2 69.9275H270.411C270.9 69.9275 271.37 70.1219 271.715 70.4679C272.061 70.814 272.256 71.2833 272.256 71.7727C272.256 72.2621 272.061 72.7314 271.715 73.0775C271.37 73.4235 270.9 73.6179 270.411 73.6179Z" fill="#2A9D8F"/>
<path d="M248.617 53.4422C248.25 53.4422 247.891 53.3326 247.587 53.1273C247.282 52.9221 247.046 52.6306 246.908 52.2902C246.77 51.9497 246.737 51.5759 246.813 51.2164C246.888 50.857 247.07 50.5283 247.333 50.2726L256.216 41.651C256.39 41.4818 256.595 41.3486 256.82 41.2589C257.046 41.1692 257.286 41.1248 257.529 41.1282C257.771 41.1317 258.011 41.183 258.233 41.2791C258.456 41.3753 258.658 41.5144 258.826 41.6885C258.995 41.8626 259.128 42.0683 259.217 42.2939C259.307 42.5194 259.351 42.7603 259.347 43.0029C259.343 43.2454 259.291 43.4849 259.195 43.7074C259.098 43.93 258.959 44.1313 258.785 44.2999L249.902 52.9214C249.558 53.2561 249.097 53.443 248.617 53.4422Z" fill="#2A9D8F"/>
<path d="M194.449 53.4422C193.969 53.4429 193.509 53.256 193.165 52.9214L184.282 44.2999C184.108 44.1313 183.968 43.93 183.872 43.7074C183.775 43.4849 183.724 43.2454 183.72 43.0029C183.716 42.7603 183.76 42.5194 183.849 42.2939C183.938 42.0683 184.071 41.8626 184.24 41.6885C184.409 41.5144 184.61 41.3753 184.833 41.2791C185.056 41.183 185.295 41.1317 185.538 41.1282C185.78 41.1248 186.021 41.1692 186.246 41.2589C186.471 41.3486 186.677 41.4818 186.85 41.651L195.733 50.2726C195.997 50.5283 196.178 50.857 196.254 51.2164C196.33 51.5759 196.296 51.9497 196.158 52.2902C196.02 52.6306 195.784 52.9221 195.48 53.1273C195.175 53.3326 194.816 53.4422 194.449 53.4422Z" fill="#2A9D8F"/>
<path d="M187.411 103.868C187.048 103.867 186.694 103.761 186.392 103.56C186.09 103.36 185.853 103.075 185.712 102.741C185.571 102.407 185.531 102.039 185.598 101.682C185.665 101.326 185.835 100.997 186.087 100.737L194.97 91.5854C195.311 91.2347 195.777 91.0338 196.266 91.0269C196.755 91.0199 197.227 91.2074 197.578 91.5482C197.928 91.889 198.13 92.3552 198.137 92.8443C198.144 93.3335 197.957 93.8055 197.617 94.1568L188.734 103.308C188.562 103.485 188.357 103.626 188.129 103.722C187.902 103.818 187.657 103.868 187.411 103.868Z" fill="#2A9D8F"/>
<path d="M259.344 105.713C259.098 105.713 258.855 105.664 258.628 105.569C258.401 105.473 258.196 105.333 258.025 105.156L247.297 94.1595C247.128 93.9862 246.994 93.7811 246.904 93.5561C246.814 93.331 246.769 93.0904 246.771 92.8479C246.774 92.6054 246.825 92.3658 246.92 92.1429C247.016 91.92 247.154 91.7181 247.327 91.5487C247.501 91.3794 247.706 91.2459 247.931 91.156C248.156 91.066 248.397 91.0213 248.639 91.0244C248.882 91.0276 249.121 91.0785 249.344 91.1743C249.566 91.2701 249.768 91.4089 249.937 91.5827L260.664 102.579C260.918 102.839 261.089 103.168 261.157 103.524C261.224 103.881 261.185 104.25 261.044 104.584C260.903 104.919 260.667 105.204 260.365 105.405C260.062 105.606 259.707 105.713 259.344 105.713Z" fill="#2A9D8F"/>
<path d="M221.729 124.165C221.24 124.165 220.771 123.971 220.425 123.625C220.079 123.278 219.885 122.809 219.885 122.32V101.1C219.885 100.857 219.932 100.618 220.025 100.394C220.118 100.17 220.253 99.9664 220.425 99.795C220.596 99.6237 220.799 99.4878 221.023 99.395C221.247 99.3023 221.487 99.2546 221.729 99.2546C221.971 99.2546 222.211 99.3023 222.435 99.395C222.659 99.4878 222.862 99.6237 223.033 99.795C223.204 99.9664 223.34 100.17 223.433 100.394C223.526 100.618 223.573 100.857 223.573 101.1V122.32C223.573 122.809 223.379 123.278 223.033 123.625C222.687 123.971 222.218 124.165 221.729 124.165Z" fill="#2A9D8F"/>
<path d="M198.453 86.2745C198.267 86.624 198.11 86.9876 197.981 87.362L163.713 96.4532L157.629 90.3542L147.228 98.3361L159.673 113.497L200.706 95.9522C201.947 96.8359 203.428 97.3205 204.952 97.3417C206.475 97.3629 207.969 96.9197 209.234 96.0709C210.5 95.2221 211.477 94.008 212.036 92.5901C212.595 91.1722 212.709 89.6176 212.363 88.1332C212.017 86.6488 211.228 85.3048 210.1 84.2801C208.973 83.2553 207.56 82.5983 206.05 82.3965C204.539 82.1947 203.004 82.4575 201.646 83.1501C200.289 83.8428 199.175 84.9323 198.452 86.2739L198.453 86.2745Z" fill="#A0616A"/>
<path d="M149.217 105.444L129.504 85.7198C128.607 84.8235 127.896 83.7591 127.41 82.5876C126.924 81.4161 126.674 80.1603 126.674 78.8921C126.674 77.6239 126.923 76.368 127.408 75.1963C127.893 74.0245 128.604 72.9598 129.501 72.063C130.397 71.1663 131.461 70.455 132.633 69.9698C133.804 69.4846 135.059 69.235 136.327 69.2353C137.595 69.2356 138.85 69.4857 140.021 69.9715C141.192 70.4572 142.256 71.169 143.152 72.0662L162.866 91.7886C163.47 92.392 163.808 93.2103 163.809 94.0636C163.809 94.917 163.47 95.7354 162.867 96.3389L162.866 96.3396L153.767 105.443C153.163 106.045 152.345 106.384 151.492 106.384C150.64 106.384 149.822 106.045 149.218 105.443L149.217 105.444Z" fill="#CCCCCC"/>
<path d="M358.142 360.7H153.907C109.846 360.7 74.0002 324.236 74.0002 279.416C74.0002 234.595 109.846 198.131 153.907 198.131H168.437C176.431 181.826 188.749 168.032 204.046 158.254C219.566 148.326 237.602 143.048 256.025 143.042C307.124 143.042 349.716 183.241 353.68 234.857H358.142C392.282 234.857 420.058 263.084 420.058 297.779C420.058 332.474 392.282 360.7 358.142 360.7ZM153.907 201.555C111.733 201.555 77.4224 236.483 77.4224 279.416C77.4224 322.348 111.733 357.277 153.907 357.277H358.142C390.395 357.277 416.636 330.586 416.636 297.779C416.636 264.971 390.395 238.281 358.142 238.281H350.473L350.375 236.673C347.292 186.09 305.848 146.466 256.025 146.466C220.147 146.466 186.793 167.708 171.051 200.582L170.586 201.555H153.907Z" fill="#3F3D56"/>
</g>
<defs>
<clipPath id="clip0_384_1159">
<rect width="490" height="361" fill="white"/>
</clipPath>
</defs>
</svg>
