<svg width="41" height="41" viewBox="0 0 41 41" fill="none" xmlns="http://www.w3.org/2000/svg">
<path d="M39.5357 35.1429H1.46429C1.07593 35.1429 0.703486 35.2971 0.428879 35.5717C0.154273 35.8463 0 36.2188 0 36.6071L0 39.5357C0 39.9241 0.154273 40.2965 0.428879 40.5711C0.703486 40.8457 1.07593 41 1.46429 41H39.5357C39.9241 41 40.2965 40.8457 40.5711 40.5711C40.8457 40.2965 41 39.9241 41 39.5357V36.6071C41 36.2188 40.8457 35.8463 40.5711 35.5717C40.2965 35.2971 39.9241 35.1429 39.5357 35.1429ZM39.5357 23.4286H1.46429C1.07593 23.4286 0.703486 23.5828 0.428879 23.8575C0.154273 24.1321 0 24.5045 0 24.8929L0 27.8214C0 28.2098 0.154273 28.5822 0.428879 28.8568C0.703486 29.1314 1.07593 29.2857 1.46429 29.2857H39.5357C39.9241 29.2857 40.2965 29.1314 40.5711 28.8568C40.8457 28.5822 41 28.2098 41 27.8214V24.8929C41 24.5045 40.8457 24.1321 40.5711 23.8575C40.2965 23.5828 39.9241 23.4286 39.5357 23.4286ZM39.5357 11.7143H1.46429C1.07593 11.7143 0.703486 11.8686 0.428879 12.1432C0.154273 12.4178 0 12.7902 0 13.1786L0 16.1071C0 16.4955 0.154273 16.8679 0.428879 17.1425C0.703486 17.4172 1.07593 17.5714 1.46429 17.5714H39.5357C39.9241 17.5714 40.2965 17.4172 40.5711 17.1425C40.8457 16.8679 41 16.4955 41 16.1071V13.1786C41 12.7902 40.8457 12.4178 40.5711 12.1432C40.2965 11.8686 39.9241 11.7143 39.5357 11.7143ZM39.5357 0H1.46429C1.07593 0 0.703486 0.154272 0.428879 0.428879C0.154273 0.703486 0 1.07593 0 1.46429L0 4.39286C0 4.78121 0.154273 5.15366 0.428879 5.42826C0.703486 5.70287 1.07593 5.85714 1.46429 5.85714H39.5357C39.9241 5.85714 40.2965 5.70287 40.5711 5.42826C40.8457 5.15366 41 4.78121 41 4.39286V1.46429C41 1.07593 40.8457 0.703486 40.5711 0.428879C40.2965 0.154272 39.9241 0 39.5357 0Z" fill="black"/>
</svg>
